<?xml version="1.0" standalone="no"?>
<!DOCTYPE svg PUBLIC "-//W3C//DTD SVG 1.1//EN"
  "http://www.w3.org/Graphics/SVG/1.1/DTD/svg11.dtd">
<svg version="1.1" xmlns="http://www.w3.org/2000/svg" xmlns:xlink="http://www.w3.org/1999/xlink" width="458" height="566" viewBox="-32.09540636042402 -32 1144.190812720848 1414" id="ccdiagram"><filter id="grayscale"><feColorMatrix type="matrix" values="0.3333 0.3333 0.3333 0 0 0.3333 0.3333 0.3333 0 0 0.3333 0.3333 0.3333 0 0 0 0 0 1 0"></feColorMatrix></filter><defs><style type="text/css">@import url('https://fonts.googleapis.com/css?family=Open+Sans:400,700|Inconsolata:400');</style></defs><g><g pointer-events="auto"><g opacity="1"><g><g><polygon points="90 585, 990 585, 1035 630, 1035 1260, 990 1305, 90 1305, 45 1260, 45 630" fill="#ffffff" stroke-width="2" stroke="#818181"></polygon><polygon points="90 630, 990 630, 990 1260, 90 1260" fill="#e6e7e8" stroke-width="0" stroke="#818181"></polygon></g></g></g><g opacity="1"><g><g><polygon points="90 45, 990 45, 1035 90, 1035 450, 990 495, 90 495, 45 450, 45 90" fill="#ffffff" stroke-width="2" stroke="#818181"></polygon><polygon points="90 90, 990 90, 990 450, 90 450" fill="#e6e7e8" stroke-width="0" stroke="#818181"></polygon></g></g></g></g><g pointer-events="auto"></g><g></g><g pointer-events="auto"></g><g></g><g pointer-events="auto"></g><g pointer-events="auto"></g><g pointer-events="none"></g><g pointer-events="auto"><g><g cursor="cell"><line x1="225" y1="765" x2="225" y2="1067" stroke="red" stroke-width="8" opacity="0"></line><line x1="225" y1="765" x2="225" y2="1067" stroke="#000000" stroke-width="2" stroke-linecap="round"></line><polygon points="225 1080, 236 1056, 225 1062, 214 1056, 225 1080" stroke-linejoin="round" fill="#000000" stroke="#000000" stroke-width="1"></polygon></g></g><g><g cursor="cell"><line x1="765" y1="765" x2="277" y2="765" stroke="red" stroke-width="8" opacity="0"></line><line x1="765" y1="765" x2="277" y2="765" stroke="#000000" stroke-width="2" stroke-linecap="round"></line><polygon points="264 765, 288 776, 281 765, 288 754, 264 765" stroke-linejoin="round" fill="#000000" stroke="#000000" stroke-width="1"></polygon></g></g><g><g cursor="cell"><line x1="225" y1="158" x2="765" y2="158" stroke="red" stroke-width="8" opacity="0"></line><line x1="225" y1="158" x2="765" y2="158" stroke="#000000" stroke-width="2" stroke-linecap="round"></line></g></g><g><g cursor="cell"><line x1="765" y1="158" x2="765" y2="353" stroke="red" stroke-width="8" opacity="0"></line><line x1="765" y1="158" x2="765" y2="353" stroke="#000000" stroke-width="2" stroke-linecap="round"></line><polygon points="765 366, 776 342, 765 349, 754 342, 765 366" stroke-linejoin="round" fill="#000000" stroke="#000000" stroke-width="1"></polygon></g></g><g><g cursor="cell"><line x1="765" y1="405" x2="765" y2="698" stroke="red" stroke-width="8" opacity="0"></line><line x1="765" y1="405" x2="765" y2="698" stroke="#000000" stroke-width="2" stroke-linecap="round"></line><polygon points="765 711, 776 687, 765 693, 754 687, 765 711" stroke-linejoin="round" fill="#000000" stroke="#000000" stroke-width="1"></polygon></g></g><g><g cursor="cell"><line x1="765" y1="405" x2="945" y2="405" stroke="red" stroke-width="8" opacity="0"></line><line x1="765" y1="405" x2="945" y2="405" stroke="#000000" stroke-width="2" stroke-linecap="round"></line></g></g><g><g cursor="cell"><line x1="945" y1="405" x2="945" y2="1035" stroke="red" stroke-width="8" opacity="0"></line><line x1="945" y1="405" x2="945" y2="1035" stroke="#000000" stroke-width="2" stroke-linecap="round"></line></g></g><g><g cursor="cell"><line x1="945" y1="1035" x2="817" y2="1035" stroke="red" stroke-width="8" opacity="0"></line><line x1="945" y1="1035" x2="817" y2="1035" stroke="#000000" stroke-width="2" stroke-linecap="round"></line><polygon points="804 1035, 828 1046, 821 1035, 828 1024, 804 1035" stroke-linejoin="round" fill="#000000" stroke="#000000" stroke-width="1"></polygon></g></g></g><g pointer-events="auto"><g opacity="1"><g id="b8eba2d5-54d3-497b-90b1-e246ed136a45" transform="translate(0 0)"><svg x="180" y="1080" height="90" id="svg15" width="90" version="1.1"><defs id="defs4"></defs><g id="Reference" fill-opacity="1" transform="scale(1.2)"><path id="Orange_Light_BG" d="M0 0h75v75H0z" fill="#d86613" data-name="Orange Light BG"></path><g id="Product_Icon" fill="#ffffff" data-name="Product Icon"><path class="cls-2" id="path9" d="M60.5 62.5H48.18a1 1 0 0 1-.9-.57L29.86 25.5h-7.37a1 1 0 0 1-1-1v-11a1 1 0 0 1 1-1h15.4a1 1 0 0 1 .9.57L56.13 49.5h4.37a1 1 0 0 1 1 1v11a1 1 0 0 1-1 1zm-11.69-2H59.5v-9h-4a1 1 0 0 1-.9-.57L37.26 14.5H23.5v9h7a1 1 0 0 1 .9.57z" fill="#ffffff" fill-opacity="1"></path><path class="cls-2" id="path11" d="M27.48 62.5h-13a1 1 0 0 1-.85-.47 1 1 0 0 1-.05-1l13.6-28.41a1 1 0 0 1 .9-.57 1 1 0 0 1 .9.56L35.49 46a1 1 0 0 1 0 .87l-7.1 15a1 1 0 0 1-.91.63zm-11.4-2h10.77l6.63-14-5.39-11.15z" fill="#ffffff" fill-opacity="1"></path></g></g></svg></g></g></g><g pointer-events="auto"></g><g pointer-events="auto"><g opacity="1"><g id="cd9a3bab-c7b3-4df8-b921-2756610e7c1d" transform="translate(0 0)"><svg x="225" y="158" overflow="visible"><g transform="scale(1.2074767078498865) "><circle cx="0" cy="0" fill="transparent" r="25"></circle><svg width="50" height="50" x="-25" y="-25"><svg xmlns="http://www.w3.org/2000/svg" viewBox="0 0 50 50"><g id="Working" fill="#232f3e"><path d="M47.5 48.44h-45a1 1 0 0 1-1-1v-3a22.73 22.73 0 0 1 17.36-22.1 1.06 1.06 0 0 1 .72.09 11.29 11.29 0 0 0 10.82 0 1 1 0 0 1 .71-.09A22.73 22.73 0 0 1 48.5 44.45v3a1 1 0 0 1-1 .99zm-44-2h43v-2A20.71 20.71 0 0 0 31 24.39a13.51 13.51 0 0 1-6 1.43 13.21 13.21 0 0 1-6-1.43A20.72 20.72 0 0 0 3.5 44.45z"></path><path d="M25 25.75a12.18 12.18 0 0 1-5.9-1.5 12.13 12.13 0 1 1 18.06-10.58 12 12 0 0 1-6.32 10.58 12.38 12.38 0 0 1-5.84 1.5zm0-22.19a10.08 10.08 0 0 0-5 18.94 10.33 10.33 0 0 0 9.85 0A10.08 10.08 0 0 0 25 3.56z"></path></g></svg></svg></g></svg></g></g><g opacity="1"><g id="754bdb9c-b0af-4a4f-a219-c42d1564e9c8" transform="translate(0 0)"><svg x="765" y="765" overflow="visible"><g transform="scale(1.2074767078498865) "><circle cx="0" cy="0" fill="transparent" r="37.5"></circle><svg width="75" height="75" x="-37.5" y="-37.5"><svg xmlns="http://www.w3.org/2000/svg" width="75" height="75" viewBox="0 0 75 75"><defs><linearGradient id="Pink_Gradient" x1="-20.83" y1="131.69" x2="-20.83" y2="-18.31" gradientTransform="rotate(45 31.5 117.498)" gradientUnits="userSpaceOnUse"><stop offset="0" stop-color="#b0084d"></stop><stop offset="1" stop-color="#ff4f8b"></stop></linearGradient></defs><g id="Example"><path id="Green_Gradient" data-name="Green Gradient" fill="url(#Pink_Gradient)" d="M0 0h75v75H0z"></path><path d="M21.89 53.76A5.9 5.9 0 0 0 16 43.55l-3.5-6 5.79-10-1.73-1L10.48 37a1 1 0 0 0 0 1l3.89 6.74a5.91 5.91 0 0 0 4.25 10 6.15 6.15 0 0 0 1.43-.18l3.19 5.52a1 1 0 0 0 .86.5h12.4v-2H24.68zm-3.27-1a3.91 3.91 0 1 1 3.91-3.91 3.92 3.92 0 0 1-3.91 3.9zM64.52 37l-3.8-6.58a5.9 5.9 0 0 0-5.86-10.15l-3.1-5.36a1 1 0 0 0-.86-.5H38.5v2h11.82l2.86 5a5.91 5.91 0 0 0 5.76 10l3.56 6.09-5 8.65 1.74 1L64.52 38a1 1 0 0 0 0-1zm-7.33-7.4a3.91 3.91 0 1 1 3.91-3.91 3.91 3.91 0 0 1-3.91 3.91zm-6 24.08a5.85 5.85 0 0 0-2.1.4l-4.25-7.17-.22.13 5.22-9a1 1 0 0 0 0-1L44.1 27a1 1 0 0 0-.86-.5H32.73l-3.85-6.6a5.9 5.9 0 1 0-3.83 1.42 6 6 0 0 0 2.11-.4l3.63 6.14L25.05 37a1 1 0 0 0 0 1l5.78 10a1 1 0 0 0 .86.5h11.55a1 1 0 0 0 .24 0l3.93 6.63a5.89 5.89 0 1 0 3.82-1.42zM25.05 19.32A3.91 3.91 0 1 1 29 15.41a3.92 3.92 0 0 1-3.95 3.91zM42.66 46.5H32.27l-5.2-9 5.2-9h10.39l5.2 9zm8.57 17a3.91 3.91 0 1 1 3.91-3.91 3.92 3.92 0 0 1-3.91 3.91z" fill="#fff"></path></g></svg></svg></g></svg></g></g><g opacity="1"><g id="c176cc71-059c-4349-b601-7a339a621ba2" transform="translate(0 0)"><svg x="225" y="765" overflow="visible"><g transform="scale(1.2074767078498865) "><circle cx="0" cy="0" fill="transparent" r="25"></circle><svg width="50" height="50" x="-25" y="-25"><svg xmlns="http://www.w3.org/2000/svg" viewBox="0 0 50 50"><g id="Working" fill="#cd2264"><path d="M16.17 18.05l-2.86-2.82H1.49L1.58 2h12.56L17 4.77h31.5V18zM3.5 13.21h10.63L17 16.05 46.51 16V6.77H16.16L13.32 4H3.57z"></path><path d="M16.16 33l-2.85-2.81H1.49V17H14.2l2.8 2.79h31.49V33zM3.49 28.22h10.65L17 31h29.5v-9.2H16.13L13.36 19H3.49z"></path><path d="M48.5 48H16.19l-2.85-2.77H1.49V32h12.58L17 34.78h31.5zM17 46h29.5v-9.22H16.17L13.25 34H3.49v9.27h10.66zM37.14 29.68l-2.54-2.55 1.42-1.41 1.24 1.25 4.91-4.11 1.28 1.53-6.31 5.29z"></path><path d="M36.89 44.62l-2.54-2.54 1.41-1.41 1.25 1.24 4.91-4.1 1.28 1.53-6.31 5.28z"></path><path transform="rotate(-44.9 39.978 11.419)" d="M38.98 7.46h2v7.91h-2z"></path><path transform="rotate(-45 39.977 11.411)" d="M36.01 10.41h7.91v2h-7.91z"></path></g></svg></svg></g></svg></g></g><g opacity="1"><g id="44e2762a-6cb8-4618-afa3-6d21870925a5" transform="translate(0 0)"><svg x="765" y="405" overflow="visible"><g transform="scale(1.2074767078498865) "><circle cx="0" cy="0" fill="transparent" r="25"></circle><svg width="50" height="50" x="-25" y="-25"><svg xmlns="http://www.w3.org/2000/svg" viewBox="0 0 50 50"><g id="Working" fill="#cd2264"><path d="M16.17 18.05l-2.86-2.82H1.49L1.58 2h12.56L17 4.77h31.5V18zM3.5 13.21h10.63L17 16.05 46.51 16V6.77H16.16L13.32 4H3.57z"></path><path d="M16.16 33l-2.85-2.81H1.49V17H14.2l2.8 2.79h31.49V33zM3.49 28.22h10.65L17 31h29.5v-9.2H16.13L13.36 19H3.49z"></path><path d="M48.5 48H16.19l-2.85-2.77H1.49V32h12.58L17 34.78h31.5zM17 46h29.5v-9.22H16.17L13.25 34H3.49v9.27h10.66zM37.14 29.68l-2.54-2.55 1.42-1.41 1.24 1.25 4.91-4.11 1.28 1.53-6.31 5.29z"></path><path d="M36.89 44.62l-2.54-2.54 1.41-1.41 1.25 1.24 4.91-4.1 1.28 1.53-6.31 5.28z"></path><path transform="rotate(-44.9 39.978 11.419)" d="M38.98 7.46h2v7.91h-2z"></path><path transform="rotate(-45 39.977 11.411)" d="M36.01 10.41h7.91v2h-7.91z"></path></g></svg></svg></g></svg></g></g><g opacity="1"><g id="c8fdfbd6-76fa-48a1-a3d3-465f97c5a7e4" transform="translate(0 0)"><svg x="923" y="158" overflow="visible"><g transform="scale(1.3975424859373686) "><circle cx="0" cy="0" fill="transparent" r="40"></circle><svg width="100" height="100" x="-50" y="-50"><svg id="Layer_1" data-name="Layer 1" xmlns="http://www.w3.org/2000/svg" width="100" height="100" viewBox="0 0 100 100"><g><path fill="#3c4929" d="M25.71 45.38l-2.22.18-7.45-.3 2.06-10.29 7.61 10.41z"></path><path fill="#b7ca9d" d="M25.71 54.95l-2.22-.18-7.45.3 2.06 10.29 7.61-10.41z"></path><path fill="#4b612c" d="M18.1 55.27l-2.06-.2v9.67l2.06.62V55.27z"></path><path fill="#759c3e" d="M25.71 64.37l-7.61.99V55.28l7.61-.33v9.42z"></path><path fill="#b7ca9d" d="M39.66 55.74l-6.12-.47-10.7.54 5.73 18.41 11.09-18.48z"></path><path fill="#4b612c" d="M18.1 45.05l-2.06.21v-9.67l2.06-.62v10.08z"></path><path fill="#759c3e" d="M25.71 35.96l-7.61-.99v10.07l7.61.34v-9.42z"></path><path fill="#3c4929" d="M39.66 44.59l-6.12.46-10.7-.53 5.73-18.38 11.09 18.45z"></path><path fill="#4b612c" d="M22.84 28.09l5.73-1.95v17.8l-5.73.58V28.09z"></path><path fill="#759c3e" d="M39.66 28.55l-11.09-2.41v17.8l11.09.65V28.55z"></path><path fill="#4b612c" d="M22.84 72.1l5.73 2.12V56.39l-5.73-.58V72.1z"></path><path fill="#759c3e" d="M39.66 71.93l-11.09 2.29V56.39l11.09-.65v16.19z"></path><path fill="#4b612c" d="M35.64 83.82L49.99 91l33.63-41L49.99 9l-14.35 7.18v67.64z"></path><path fill="#759c3e" d="M83.96 74.02L49.99 91V9l33.97 16.98v48.04z"></path></g></svg></svg></g></svg></g></g><g opacity="1"><g id="97bc1f34-93a6-4bcb-82d1-f9c8fc4be9d5" transform="translate(0 0)"><svg x="225" y="315" overflow="visible"><g transform="scale(1.2074767078498865) "><circle cx="0" cy="0" fill="transparent" r="25"></circle><svg width="50" height="50" x="-25" y="-25"><svg xmlns="http://www.w3.org/2000/svg" viewBox="0 0 50 50"><g id="Working" fill="#d6242d"><path d="M7.94 31.62v-.83a19.8 19.8 0 0 1 39.55-1.35l-2 .13a17.8 17.8 0 0 0-35.57 1.22v.75z"></path><path d="M8.73 32.22v-1.31a16.49 16.49 0 0 1 6.55-13.07l.1-.07a18.34 18.34 0 0 1 9.3-2.51 17.61 17.61 0 0 1 17.05 12.43l-1.92.54a15.6 15.6 0 0 0-15.16-11 16.33 16.33 0 0 0-8.23 2.2 14.48 14.48 0 0 0-5.72 11.48v1.26zM10.05 37.83l-.27-2a11.65 11.65 0 0 0 5-1.67c3.31-2.4 10.31-3.26 14.09-3a23.81 23.81 0 0 1 7.06 2.22A17.59 17.59 0 0 0 39 34.57a29 29 0 0 0 5-.28h.17c.59-.06 1.17-.12 1.73-.16h.56v-3.61h-.21l-1.8.17-1.36.12-.15-2 1.34-.11 1.77-.17.46-.05a1.73 1.73 0 0 1 2 1.72v4.09A1.74 1.74 0 0 1 46.88 36h-.14l-.62.05-1.7.16h-.18a28.57 28.57 0 0 1-5.54.27 16.54 16.54 0 0 1-3.58-1.29 22.25 22.25 0 0 0-6.42-1.99c-3.4-.26-9.89.51-12.76 2.6a13.61 13.61 0 0 1-5.89 2.03zM46.74 34z"></path><path d="M37.37 30.78c-.57-.17-1.2-.41-1.93-.69a18.5 18.5 0 0 0-7.73-1.65c-4.86.29-7.22.57-9 1.08l-.56-1.92c2-.56 4.42-.86 9.45-1.15a20.24 20.24 0 0 1 8.56 1.77c.68.27 1.28.49 1.76.63zM7.4 38c-2.14 0-4.25-.39-5.34-1.48A1.7 1.7 0 0 1 1.53 35c.24-1.27 1.87-2 4.14-3 1-.41 1.93-.84 2.79-1.31l1 1.75c-.94.52-2 1-2.95 1.4a18.94 18.94 0 0 0-2.82 1.4c.9.63 3.16 1 6.13.59l.27 2A20.68 20.68 0 0 1 7.4 38z"></path><path d="M42.35 32.56h-4a1.71 1.71 0 0 1-1.7-1.71v-2.19a1.7 1.7 0 0 1 1.7-1.7h4a1.7 1.7 0 0 1 1.7 1.7v2.19a1.71 1.71 0 0 1-1.7 1.71zm-3.7-2h3.4V29h-3.4zM16.49 35.28a13 13 0 0 1-8.22-3l1.33-1.45a11 11 0 0 0 7 2.45z"></path></g></svg></svg></g></svg></g></g><g opacity="1"><g id="f70cadbe-b21d-4dbd-9e97-da99d68a8e23" transform="translate(0 0)"><svg x="765" y="1035" overflow="visible"><g transform="scale(1.2074767078498865) "><circle cx="0" cy="0" fill="transparent" r="25"></circle><svg width="50" height="50" x="-25" y="-25"><svg xmlns="http://www.w3.org/2000/svg" viewBox="0 0 50 50"><g id="Working" fill="#cd2264"><path d="M47.5 40.12h-45a1 1 0 0 1-1-1V12.88a1 1 0 0 1 1-1h45a1 1 0 0 1 1 1v26.24a1 1 0 0 1-1 1zm-44-2h43V13.88h-43z"></path><path d="M18.38 15.69h2v20.62h-2zM24 15.69h2v20.62h-2zM29.63 15.69h2v20.62h-2zM10 30.88a1 1 0 0 1-.42-.09 1 1 0 0 1-.58-.91v-7.76a1 1 0 0 1 1.64-.77l4.66 3.88a1 1 0 0 1 0 1.54l-4.66 3.88a1 1 0 0 1-.64.23zm1-6.62v3.48L13.09 26zM40 30.88a1 1 0 0 1-.64-.23l-4.66-3.88a1 1 0 0 1 0-1.54l4.66-3.88a1 1 0 0 1 1.64.77v7.76a1 1 0 0 1-.58.91 1 1 0 0 1-.42.09zM36.91 26L39 27.74v-3.48z"></path></g></svg></svg></g></svg></g></g></g><g pointer-events="auto"><g opacity="1"><g id="fcaf17a2-ec4c-4a93-9e42-a61ee3ff7c6c" transform="translate(0 0)"><svg x="653" y="1215" overflow="visible"><text stroke="#ffffff" stroke-width="4" font-family="Open Sans" y="36.5" font-size="25pt" fill="#f5b720" font-weight="bold" transform="" xml:space="preserve"><tspan x="8" dy="0">Custodian Account</tspan></text><text font-family="Open Sans" y="36.5" font-size="25pt" fill="#f5b720" font-weight="bold" transform="" xml:space="preserve"><tspan x="8" dy="0">Custodian Account</tspan></text></svg></g></g><g opacity="1"><g id="34e984a2-6444-4d8d-8bf0-b05c24673389"><svg x="157" y="1170" overflow="visible"><text stroke="#ffffff" stroke-width="4" font-family="Open Sans" y="36.5" font-size="25pt" fill="#f5b720" font-weight="bold" transform="" xml:space="preserve"><tspan x="8" dy="0">Realtime</tspan><tspan x="8" dy="1.1em">Guardrails</tspan></text><text font-family="Open Sans" y="36.5" font-size="25pt" fill="#f5b720" font-weight="bold" transform="" xml:space="preserve"><tspan x="8" dy="0">Realtime</tspan><tspan x="8" dy="1.1em">Guardrails</tspan></text></svg></g></g><g opacity="1"><g id="3687da8e-baf3-4734-ae75-0360f32d5001"><svg x="630" y="810" overflow="visible"><text stroke="#ffffff" stroke-width="4" font-family="Open Sans" y="36.5" font-size="25pt" fill="#f5b720" font-weight="bold" transform="" xml:space="preserve"><tspan x="8" dy="0">default event bus*</tspan></text><text font-family="Open Sans" y="36.5" font-size="25pt" fill="#f5b720" font-weight="bold" transform="" xml:space="preserve"><tspan x="8" dy="0">default event bus*</tspan></text></svg></g></g><g opacity="1"><g id="54fe4589-51bc-4313-94eb-13986e4f121b"><svg x="158" y="788" overflow="visible"><text stroke="#ffffff" stroke-width="4" font-family="Open Sans" y="36.5" font-size="25pt" fill="#f5b720" font-weight="bold" transform="" xml:space="preserve"><tspan x="8" dy="0">cloud custodian</tspan><tspan x="8" dy="1.1em">event rules</tspan></text><text font-family="Open Sans" y="36.5" font-size="25pt" fill="#f5b720" font-weight="bold" transform="" xml:space="preserve"><tspan x="8" dy="0">cloud custodian</tspan><tspan x="8" dy="1.1em">event rules</tspan></text></svg></g></g><g opacity="1"><g id="ce54ddfe-84da-497c-9bbb-33cc871653e2" transform="translate(0 0)"><svg x="90" y="405" overflow="visible"><text stroke="#ffffff" stroke-width="4" font-family="Open Sans" y="36.5" font-size="25pt" fill="#f5b720" font-weight="bold" transform="" xml:space="preserve"><tspan x="8" dy="0">Developer Accounts</tspan></text><text font-family="Open Sans" y="36.5" font-size="25pt" fill="#f5b720" font-weight="bold" transform="" xml:space="preserve"><tspan x="8" dy="0">Developer Accounts</tspan></text></svg></g></g><g opacity="1"><g id="9220b27f-8752-4774-92c9-2c76c3720a6a"><svg x="585" y="315" overflow="visible"><text stroke="#ffffff" stroke-width="4" font-family="Open Sans" y="36.5" font-size="25pt" fill="#f5b720" font-weight="bold" transform="" xml:space="preserve"><tspan x="8" dy="0">Event Forwarder Rule</tspan></text><text font-family="Open Sans" y="36.5" font-size="25pt" fill="#f5b720" font-weight="bold" transform="" xml:space="preserve"><tspan x="8" dy="0">Event Forwarder Rule</tspan></text></svg></g></g><g opacity="1"><g id="4cbb4878-c137-4347-900a-db60cfd9f413"><svg x="563" y="90" overflow="visible"><text stroke="#ffffff" stroke-width="4" font-family="Open Sans" y="36.5" font-size="25pt" fill="#f5b720" font-weight="bold" transform="" xml:space="preserve"><tspan x="8" dy="0">Organization Trail</tspan></text><text font-family="Open Sans" y="36.5" font-size="25pt" fill="#f5b720" font-weight="bold" transform="" xml:space="preserve"><tspan x="8" dy="0">Organization Trail</tspan></text></svg></g></g><g opacity="1"><g id="67755027-5ec3-4c34-8428-875aa8a01bad"><svg x="135" y="203" overflow="visible"><text stroke="#ffffff" stroke-width="4" font-family="Open Sans" y="36.5" font-size="25pt" fill="#f5b720" font-weight="bold" transform="" xml:space="preserve"><tspan x="8" dy="0">Developer</tspan></text><text font-family="Open Sans" y="36.5" font-size="25pt" fill="#f5b720" font-weight="bold" transform="" xml:space="preserve"><tspan x="8" dy="0">Developer</tspan></text></svg></g></g><g opacity="1"><g id="f1de7de4-21be-47f4-86dc-06fa0c618db9"><svg x="90" y="338" overflow="visible"><text stroke="#ffffff" stroke-width="4" font-family="Open Sans" y="36.5" font-size="25pt" fill="#f5b720" font-weight="bold" transform="" xml:space="preserve"><tspan x="8" dy="0">Cross Account Role</tspan></text><text font-family="Open Sans" y="36.5" font-size="25pt" fill="#f5b720" font-weight="bold" transform="" xml:space="preserve"><tspan x="8" dy="0">Cross Account Role</tspan></text></svg></g></g><g opacity="1"><g id="b565883c-4aa7-45b2-8f42-7402d1e97473"><svg x="563" y="1058" overflow="visible"><text stroke="#ffffff" stroke-width="4" font-family="Open Sans" y="36.5" font-size="25pt" fill="#f5b720" font-weight="bold" transform="" xml:space="preserve"><tspan x="8" dy="0">Event Forwarders' DLQ</tspan></text><text font-family="Open Sans" y="36.5" font-size="25pt" fill="#f5b720" font-weight="bold" transform="" xml:space="preserve"><tspan x="8" dy="0">Event Forwarders' DLQ</tspan></text></svg></g></g></g><g></g></g></svg>